<svg id="Boxed_Black" data-name="Boxed Black" xmlns="http://www.w3.org/2000/svg" viewBox="0 0 503 70"><defs><style>.cls-1{fill:#0f7bb6;}.cls-2{fill:#fff;}</style></defs><g id="_logo_" data-name="&lt;logo&gt;"><rect class="cls-1" x="1.5" y="2.27" width="137.4" height="65.71"/><path class="cls-2" d="M23.47,41.45a29.61,29.61,0,0,1-.07-3.32L25,20.22H30.7L29.13,38.29c-.34,3.91,1.16,6.7,5,6.7s6-2.84,6.32-6.31l1.64-18.46h5.74L46.24,38.45c-.65,7-5.21,12.28-12.6,12.28-5.75,0-9.46-3.8-10.17-9.28"/><path class="cls-2" d="M49.15,35.38c.75-8.6,6.44-15.73,16.26-15.73A13.24,13.24,0,0,1,73,21.88L72.31,29a8.44,8.44,0,0,0-7.45-3.53c-6.11,0-9.46,4.33-10,9.81s2.24,9.68,8.17,9.68a10.91,10.91,0,0,0,8.2-3.68l-.64,7.29a16.32,16.32,0,0,1-8,2.25c-9.73,0-14.18-7.37-13.48-15.42"/><path class="cls-2" d="M77.56,20.22h5.73L81.2,44.54h8.22c.57,0,2.53,0,3.07-.06,0,.29-.53,5.62-.53,5.62H75Z"/><path class="cls-2" d="M107.44,31.37a6.78,6.78,0,0,0,.42-1.25H108a7.11,7.11,0,0,0,.22,1.26c.32,1.36,2.55,8.93,2.55,8.93h-7.24s3.88-8.74,4-8.94m1.47-12.52h-.4L92.81,50.1H98.9l2.21-4.74h11.06l1.38,4.74h6.08Z"/></g><path d="M153.34,37.57a10.07,10.07,0,0,1,7.52-3q6.1,0,8.93,4.05a8.89,8.89,0,0,1,1.68,4.57h-5.12a6.87,6.87,0,0,0-1.25-2.66,5,5,0,0,0-4-1.59,5,5,0,0,0-4.31,2.25,11,11,0,0,0-1.57,6.36c0,2.75.55,4.8,1.66,6.17a5.21,5.21,0,0,0,4.23,2,4.8,4.8,0,0,0,4-1.76,7.79,7.79,0,0,0,1.27-2.84h5.08a11,11,0,0,1-3.36,6.51,9.78,9.78,0,0,1-6.92,2.51,10.4,10.4,0,0,1-8.22-3.39q-3-3.41-3-9.33Q149.94,41,153.34,37.57Z"/><path d="M189.1,57.27q-2.28,2.83-6.95,2.83t-7-2.83a11.23,11.23,0,0,1,0-13.59q2.3-2.86,7-2.87t6.95,2.87a11.19,11.19,0,0,1,0,13.59Zm-3.78-2.61a6.88,6.88,0,0,0,1.11-4.2,6.82,6.82,0,0,0-1.11-4.18,4.2,4.2,0,0,0-6.38,0,6.75,6.75,0,0,0-1.12,4.18,6.82,6.82,0,0,0,1.12,4.2,4.2,4.2,0,0,0,6.38,0Z"/><path d="M216.2,41.46a5.25,5.25,0,0,1,2.11,1.62,5.13,5.13,0,0,1,1,2.33,16,16,0,0,1,.17,2.67l0,11.41h-4.85V48a3.8,3.8,0,0,0-.33-1.69A2.38,2.38,0,0,0,212,45a2.7,2.7,0,0,0-2.7,1.63,5,5,0,0,0-.39,2.07V59.49h-4.76V48.71a6.1,6.1,0,0,0-.33-2.34,2.32,2.32,0,0,0-2.34-1.31,2.82,2.82,0,0,0-2.73,1.31,5.14,5.14,0,0,0-.38,2.23V59.49h-4.8V41.42h4.6v2.64a7.73,7.73,0,0,1,1.66-2,6.57,6.57,0,0,1,6.93-.14,5.34,5.34,0,0,1,1.56,2.17,6,6,0,0,1,2.3-2.34,7,7,0,0,1,3.26-.75A6.27,6.27,0,0,1,216.2,41.46Z"/><path d="M237.92,43.33c1.48,1.56,2.21,3.85,2.21,6.88s-.72,5.61-2.16,7.28A7,7,0,0,1,232.4,60a5.84,5.84,0,0,1-3.61-1.08,6.9,6.9,0,0,1-1.54-1.74v9.43h-4.68V41.39h4.53v2.67a7.78,7.78,0,0,1,1.64-1.86A6.09,6.09,0,0,1,232.51,41,7.17,7.17,0,0,1,237.92,43.33Zm-3.63,3.41a3.36,3.36,0,0,0-3.13-1.61,3.55,3.55,0,0,0-3.57,2.44,9,9,0,0,0-.51,3.28c0,2.11.57,3.58,1.7,4.44a3.92,3.92,0,0,0,2.38.74,3.46,3.46,0,0,0,3-1.52,8,8,0,0,0,.09-7.77Z"/><path d="M247,41.39V52.3a5.76,5.76,0,0,0,.36,2.32A2.51,2.51,0,0,0,249.92,56a3.29,3.29,0,0,0,3.3-2,7.06,7.06,0,0,0,.47-2.8V41.39h4.79v18.1h-4.59V56.93c0,.06-.16.22-.34.5a3.33,3.33,0,0,1-.62.73,6.59,6.59,0,0,1-2.15,1.36,7.38,7.38,0,0,1-2.42.36q-4,0-5.4-2.88a11.09,11.09,0,0,1-.78-4.7V41.39Z"/><path d="M260.07,44.93V41.56h2.52V36.51h4.68v5.05h2.94v3.37h-2.94v9.56a2.25,2.25,0,0,0,.28,1.39,3.17,3.17,0,0,0,1.73.27h.46l.47,0v3.53l-2.24.09c-2.24.07-3.76-.31-4.58-1.17a3.44,3.44,0,0,1-.8-2.5V44.93Z"/><path d="M279.26,48.48a7.26,7.26,0,0,0,1.89-.42,1.41,1.41,0,0,0,1-1.34,1.61,1.61,0,0,0-.78-1.54,5,5,0,0,0-2.3-.42,3.05,3.05,0,0,0-2.41.83,3.46,3.46,0,0,0-.67,1.66h-4.56a6.92,6.92,0,0,1,1.33-3.9C274,41.76,276.19,41,279.25,41a11.46,11.46,0,0,1,5.3,1.18c1.55.78,2.32,2.27,2.32,4.45v8.3c0,.57,0,1.27,0,2.09a2.77,2.77,0,0,0,.28,1.26,1.72,1.72,0,0,0,.7.55v.7h-5.15a5.22,5.22,0,0,1-.29-1c-.06-.32-.1-.69-.14-1.1A9.58,9.58,0,0,1,280,59.17a6.81,6.81,0,0,1-3.47.88,6,6,0,0,1-4.08-1.4,5,5,0,0,1-1.62-4,5.16,5.16,0,0,1,2.6-4.83,11.52,11.52,0,0,1,4.18-1.16Zm2.89,2.21a4.8,4.8,0,0,1-.91.45,7.59,7.59,0,0,1-1.27.33l-1.08.2a7.08,7.08,0,0,0-2.18.64,2.18,2.18,0,0,0-1.11,2,2.07,2.07,0,0,0,.68,1.75,2.59,2.59,0,0,0,1.66.54,4.94,4.94,0,0,0,2.86-.89,3.79,3.79,0,0,0,1.35-3.27Z"/><path d="M288,44.93V41.56h2.52V36.51h4.68v5.05h2.94v3.37h-2.94v9.56a2.25,2.25,0,0,0,.28,1.39,3.17,3.17,0,0,0,1.73.27h.46l.47,0v3.53l-2.24.09c-2.24.07-3.76-.31-4.58-1.17a3.44,3.44,0,0,1-.8-2.5V44.93Z"/><path d="M304.88,39.23h-4.8V34.87h4.8Zm-4.8,2.16h4.8v18.1h-4.8Z"/><path d="M323.39,57.27q-2.28,2.83-6.95,2.83t-7-2.83a10.44,10.44,0,0,1-2.29-6.81,10.51,10.51,0,0,1,2.29-6.78q2.29-2.86,7-2.87t6.95,2.87a10.51,10.51,0,0,1,2.29,6.78A10.44,10.44,0,0,1,323.39,57.27Zm-3.78-2.61a6.88,6.88,0,0,0,1.11-4.2,6.82,6.82,0,0,0-1.11-4.18,4.2,4.2,0,0,0-6.38,0,6.75,6.75,0,0,0-1.13,4.18,6.82,6.82,0,0,0,1.13,4.2,4.2,4.2,0,0,0,6.38,0Z"/><path d="M342.51,42.43q1.77,1.47,1.77,4.87V59.49h-4.84v-11a5.1,5.1,0,0,0-.38-2.19,2.67,2.67,0,0,0-2.64-1.4,3.26,3.26,0,0,0-3.28,2,7,7,0,0,0-.46,2.75v9.8H328V41.42h4.58v2.64a8.12,8.12,0,0,1,1.72-2A6,6,0,0,1,337.94,41,7,7,0,0,1,342.51,42.43Z"/><path d="M354.7,48.48a7.06,7.06,0,0,0,1.88-.42,1.41,1.41,0,0,0,1-1.34,1.61,1.61,0,0,0-.79-1.54,4.94,4.94,0,0,0-2.29-.42,3,3,0,0,0-2.41.83,3.36,3.36,0,0,0-.67,1.66h-4.57a7,7,0,0,1,1.33-3.9Q350.1,41,354.68,41A11.53,11.53,0,0,1,360,42.14c1.54.78,2.31,2.27,2.31,4.45v8.3c0,.57,0,1.27,0,2.09a2.53,2.53,0,0,0,.28,1.26,1.66,1.66,0,0,0,.7.55v.7h-5.15a6.1,6.1,0,0,1-.3-1c-.05-.32-.1-.69-.13-1.1a10,10,0,0,1-2.27,1.81,6.87,6.87,0,0,1-3.48.88,6,6,0,0,1-4.08-1.4,5,5,0,0,1-1.61-4,5.15,5.15,0,0,1,2.59-4.83,11.58,11.58,0,0,1,4.18-1.16Zm2.89,2.21a4.6,4.6,0,0,1-.92.45,7.33,7.33,0,0,1-1.27.33l-1.08.2a7,7,0,0,0-2.17.64,2.17,2.17,0,0,0-1.12,2,2.09,2.09,0,0,0,.68,1.75,2.61,2.61,0,0,0,1.66.54,4.91,4.91,0,0,0,2.86-.89,3.82,3.82,0,0,0,1.36-3.27Z"/><path d="M370.11,59.49h-4.73V35h4.73Z"/><path d="M385.93,51.93a5,5,0,0,0,.93,2.51c.85,1,2.3,1.51,4.36,1.51a9.26,9.26,0,0,0,3-.4,2.84,2.84,0,0,0,2.18-2.84,2.08,2.08,0,0,0-1.07-1.87,11.49,11.49,0,0,0-3.39-1.15l-2.65-.58a16.18,16.18,0,0,1-5.37-1.88,5.94,5.94,0,0,1-2.47-5.29,7,7,0,0,1,2.42-5.46q2.42-2.17,7.11-2.18a11,11,0,0,1,6.68,2.05,7.3,7.3,0,0,1,2.9,5.95h-4.92a3.5,3.5,0,0,0-2-3.13,6.79,6.79,0,0,0-3.05-.62,5.78,5.78,0,0,0-3.23.8,2.51,2.51,0,0,0-1.21,2.22,2.1,2.1,0,0,0,1.19,2,14.25,14.25,0,0,0,3.25,1l4.3,1a10.92,10.92,0,0,1,4.23,1.77,6,6,0,0,1,2.19,5,7,7,0,0,1-2.6,5.57q-2.6,2.22-7.32,2.22a11.93,11.93,0,0,1-7.6-2.19,7.2,7.2,0,0,1-2.77-6Z"/><path d="M414.21,47.88a4.27,4.27,0,0,0-.68-1.82,2.88,2.88,0,0,0-2.48-1.1,3.27,3.27,0,0,0-3.28,2.37,9.9,9.9,0,0,0-.47,3.35,9,9,0,0,0,.47,3.19A3.15,3.15,0,0,0,411,56.13a2.86,2.86,0,0,0,2.37-.89,4.54,4.54,0,0,0,.84-2.33H419A8,8,0,0,1,417.44,57a7.58,7.58,0,0,1-6.59,3.1c-2.92,0-5.06-.86-6.44-2.59a10.48,10.48,0,0,1-2.06-6.72q0-4.65,2.28-7.24A7.92,7.92,0,0,1,410.91,41a9.48,9.48,0,0,1,5.58,1.53q2.16,1.51,2.57,5.39Z"/><path d="M426,39.23h-4.8V34.87H426Zm-4.8,2.16H426v18.1h-4.8Z"/><path d="M441.22,41.76a7.37,7.37,0,0,1,3.13,2.67,9,9,0,0,1,1.44,3.75,22.07,22.07,0,0,1,.15,3.59H432.76a4.35,4.35,0,0,0,1.9,3.81,4.74,4.74,0,0,0,2.6.69,4,4,0,0,0,2.63-.83,4.13,4.13,0,0,0,1-1.25h4.83a6,6,0,0,1-1.76,3.27,8.79,8.79,0,0,1-6.81,2.64,9.84,9.84,0,0,1-6.37-2.23Q428,55.65,428,50.63q0-4.71,2.49-7.21A8.73,8.73,0,0,1,437,40.91,10.22,10.22,0,0,1,441.22,41.76Zm-7.08,4.08a4.92,4.92,0,0,0-1.26,2.81H441a3.9,3.9,0,0,0-1.26-2.86,4.15,4.15,0,0,0-2.81-1A3.79,3.79,0,0,0,434.14,45.84Z"/><path d="M461.77,42.43q1.78,1.47,1.78,4.87V59.49H458.7v-11a5,5,0,0,0-.38-2.19,2.66,2.66,0,0,0-2.63-1.4,3.26,3.26,0,0,0-3.28,2,7,7,0,0,0-.47,2.75v9.8h-4.73V41.42h4.59v2.64a7.9,7.9,0,0,1,1.71-2A6,6,0,0,1,457.2,41,6.93,6.93,0,0,1,461.77,42.43Z"/><path d="M477.62,47.88a4.16,4.16,0,0,0-.69-1.82,2.85,2.85,0,0,0-2.47-1.1,3.26,3.26,0,0,0-3.28,2.37,9.9,9.9,0,0,0-.47,3.35,9,9,0,0,0,.47,3.19,3.15,3.15,0,0,0,3.19,2.26,2.86,2.86,0,0,0,2.37-.89,4.54,4.54,0,0,0,.84-2.33h4.83A7.94,7.94,0,0,1,480.85,57a7.58,7.58,0,0,1-6.59,3.1c-2.92,0-5.06-.86-6.44-2.59a10.48,10.48,0,0,1-2.06-6.72q0-4.65,2.28-7.24A7.92,7.92,0,0,1,474.32,41a9.48,9.48,0,0,1,5.58,1.53c1.44,1,2.3,2.81,2.56,5.39Z"/><path d="M496.34,41.76a7.28,7.28,0,0,1,3.12,2.67,8.84,8.84,0,0,1,1.45,3.75,23.29,23.29,0,0,1,.15,3.59H487.88a4.35,4.35,0,0,0,1.9,3.81,4.74,4.74,0,0,0,2.6.69,4,4,0,0,0,2.63-.83,4,4,0,0,0,1-1.25h4.84a6,6,0,0,1-1.76,3.27,8.79,8.79,0,0,1-6.81,2.64,9.84,9.84,0,0,1-6.37-2.23q-2.76-2.22-2.76-7.24,0-4.71,2.49-7.21a8.73,8.73,0,0,1,6.47-2.51A10.22,10.22,0,0,1,496.34,41.76Zm-7.08,4.08A4.92,4.92,0,0,0,488,48.65h8.15a4,4,0,0,0-1.26-2.86,4.15,4.15,0,0,0-2.81-1A3.79,3.79,0,0,0,489.26,45.84Z"/><path d="M149.94,26.34l5.66-14.4h1.54l5.52,14.4h-1.4l-1.66-4.52H153l-1.7,4.52Zm3.56-5.68h5.64l-2.82-7.56Z"/><path d="M171.72,11.94h1.2v14.4h-1.2V24.52h0a3.41,3.41,0,0,1-.67.91,4.28,4.28,0,0,1-.9.65,5.73,5.73,0,0,1-1,.4,4.1,4.1,0,0,1-1,.14,4.92,4.92,0,0,1-2.14-.42,3.92,3.92,0,0,1-1.45-1.15,4.64,4.64,0,0,1-.83-1.73,8.2,8.2,0,0,1-.26-2.14,7.57,7.57,0,0,1,.28-2.08,5,5,0,0,1,.85-1.75,4.21,4.21,0,0,1,1.44-1.2A4.4,4.4,0,0,1,168,15.7a4.76,4.76,0,0,1,2.11.49,3.77,3.77,0,0,1,1.59,1.45Zm0,9.18a5.71,5.71,0,0,0-.24-1.67,4.26,4.26,0,0,0-.69-1.38,3.42,3.42,0,0,0-1.1-.94,3,3,0,0,0-1.47-.35,3.29,3.29,0,0,0-1.62.37,3,3,0,0,0-1.12,1,4.18,4.18,0,0,0-.64,1.49,6.41,6.41,0,0,0-.16,1.83,5.11,5.11,0,0,0,.27,1.73,3.72,3.72,0,0,0,.75,1.27,3.13,3.13,0,0,0,1.12.79,3.53,3.53,0,0,0,1.4.27,3.19,3.19,0,0,0,1.5-.34,3.29,3.29,0,0,0,1.1-.93,4.44,4.44,0,0,0,.67-1.4A6.5,6.5,0,0,0,171.72,21.12Z"/><path d="M174.14,16h1.3l3.36,8.88L182.16,16h1.3l-4,10.36H178.1Z"/><path d="M189.3,20.3l.81-.12a3.1,3.1,0,0,0,.77-.22.64.64,0,0,0,.37-.47,3.46,3.46,0,0,0,.07-.61,2.06,2.06,0,0,0-.59-1.51,2.78,2.78,0,0,0-2-.59,5.65,5.65,0,0,0-1.14.11,2.4,2.4,0,0,0-.91.38,2,2,0,0,0-.64.72,3,3,0,0,0-.33,1.13H184.5a3.71,3.71,0,0,1,.42-1.57,3.18,3.18,0,0,1,.93-1.06,4,4,0,0,1,1.32-.6,6.6,6.6,0,0,1,3.06,0,3.29,3.29,0,0,1,1.2.54,2.62,2.62,0,0,1,.8,1,3.61,3.61,0,0,1,.29,1.52v5.64c0,.47.08.76.25.89s.5.1,1-.09v.94l-.41.12a2,2,0,0,1-.53.08,2.35,2.35,0,0,1-.54-.06,1,1,0,0,1-.48-.19,1.12,1.12,0,0,1-.29-.36,1.19,1.19,0,0,1-.15-.46,3,3,0,0,1,0-.53,5.07,5.07,0,0,1-3.86,1.72,4.71,4.71,0,0,1-1.31-.18,3.23,3.23,0,0,1-1.11-.56,2.64,2.64,0,0,1-.76-.93,2.84,2.84,0,0,1-.28-1.31c0-1.76,1.2-2.8,3.62-3.12Zm2,.6a6.19,6.19,0,0,1-1.54.42c-.52.07-1,.12-1.56.16a4.39,4.39,0,0,0-2.15.62,1.76,1.76,0,0,0-.77,1.58,1.67,1.67,0,0,0,.19.83,1.65,1.65,0,0,0,.5.58,2,2,0,0,0,.72.34,3.32,3.32,0,0,0,.83.11,5.49,5.49,0,0,0,1.4-.18,3.81,3.81,0,0,0,1.21-.55,3,3,0,0,0,.85-.94,2.75,2.75,0,0,0,.32-1.35Z"/><path d="M196.16,26.34H195V16h1.2v1.44a7.32,7.32,0,0,1,1.49-1.24,3.42,3.42,0,0,1,1.85-.48,4.74,4.74,0,0,1,1.78.33,3.08,3.08,0,0,1,1.38,1.15,2.66,2.66,0,0,1,.45,1.15,12,12,0,0,1,.07,1.23v6.78H202V19.58a3.1,3.1,0,0,0-.62-2.1,2.63,2.63,0,0,0-2.06-.7,3,3,0,0,0-1,.17,2.88,2.88,0,0,0-.83.45,2.94,2.94,0,0,0-.63.64,2.64,2.64,0,0,0-.4.76,3.49,3.49,0,0,0-.22,1c0,.31,0,.64,0,1Z"/><path d="M212.72,19.24a3.53,3.53,0,0,0-1.1-1.81,3,3,0,0,0-2-.65,3.13,3.13,0,0,0-1.58.38,3.17,3.17,0,0,0-1.08,1,4.44,4.44,0,0,0-.62,1.42,6.13,6.13,0,0,0-.2,1.59,6.55,6.55,0,0,0,.19,1.6,4.11,4.11,0,0,0,.61,1.4,3.05,3.05,0,0,0,2.68,1.36,3.08,3.08,0,0,0,2.15-.74,3.44,3.44,0,0,0,1-2h1.28a6.29,6.29,0,0,1-.51,1.57,4.44,4.44,0,0,1-.9,1.22,4,4,0,0,1-1.31.79,5.2,5.2,0,0,1-1.74.28,5,5,0,0,1-2.14-.42A4,4,0,0,1,206,25.05a4.69,4.69,0,0,1-.86-1.73,7.79,7.79,0,0,1-.28-2.14,6.78,6.78,0,0,1,.31-2.07,5.3,5.3,0,0,1,.91-1.75,4.3,4.3,0,0,1,1.49-1.21,4.45,4.45,0,0,1,2-.45,4.64,4.64,0,0,1,2.91.86,4,4,0,0,1,1.39,2.68Z"/><path d="M216.54,21.44a5.5,5.5,0,0,0,.22,1.59,3.7,3.7,0,0,0,.65,1.3,3.05,3.05,0,0,0,1.09.88,3.63,3.63,0,0,0,3.54-.29,3,3,0,0,0,1.12-1.76h1.34a6.72,6.72,0,0,1-.58,1.37,4.17,4.17,0,0,1-.9,1.1,3.92,3.92,0,0,1-1.28.73,5.32,5.32,0,0,1-1.72.26,5,5,0,0,1-2.14-.42,4,4,0,0,1-1.48-1.15,4.72,4.72,0,0,1-.86-1.72,7.67,7.67,0,0,1-.28-2.13,6.8,6.8,0,0,1,.33-2.14,5.35,5.35,0,0,1,.94-1.75A4.31,4.31,0,0,1,218,16.13a4.42,4.42,0,0,1,2-.43,4.15,4.15,0,0,1,3.36,1.47,6.49,6.49,0,0,1,1.2,4.27Zm6.76-1a4.76,4.76,0,0,0-.21-1.43,3.4,3.4,0,0,0-.62-1.16,3,3,0,0,0-1-.78,3.4,3.4,0,0,0-1.42-.29,3.12,3.12,0,0,0-1.41.3,3.18,3.18,0,0,0-1,.8,3.84,3.84,0,0,0-.69,1.16,5,5,0,0,0-.34,1.4Z"/><path d="M234.22,11.94h1.2v14.4h-1.2V24.52h0a3.41,3.41,0,0,1-.67.91,4.28,4.28,0,0,1-.9.65,5.73,5.73,0,0,1-1,.4,4.1,4.1,0,0,1-1,.14,4.92,4.92,0,0,1-2.14-.42A3.92,3.92,0,0,1,227,25.05a4.64,4.64,0,0,1-.83-1.73,8.2,8.2,0,0,1-.26-2.14,7.57,7.57,0,0,1,.28-2.08,5,5,0,0,1,.85-1.75,4.21,4.21,0,0,1,1.44-1.2,4.4,4.4,0,0,1,2.05-.45,4.76,4.76,0,0,1,2.11.49,3.77,3.77,0,0,1,1.59,1.45Zm0,9.18a5.71,5.71,0,0,0-.24-1.67,4.26,4.26,0,0,0-.69-1.38,3.42,3.42,0,0,0-1.1-.94,3,3,0,0,0-1.47-.35,3.29,3.29,0,0,0-1.62.37,3,3,0,0,0-1.12,1,4.18,4.18,0,0,0-.64,1.49,6.41,6.41,0,0,0-.16,1.83,5.11,5.11,0,0,0,.27,1.73,3.72,3.72,0,0,0,.75,1.27,3.13,3.13,0,0,0,1.12.79,3.53,3.53,0,0,0,1.4.27,3.19,3.19,0,0,0,1.5-.34,3.29,3.29,0,0,0,1.1-.93,4.44,4.44,0,0,0,.67-1.4A6.5,6.5,0,0,0,234.22,21.12Z"/><path d="M244.12,19.8v6.54l-1.36,0V11.94h5.64a6.31,6.31,0,0,1,3.64.89,3.29,3.29,0,0,1,1.26,2.89,3.79,3.79,0,0,1-.55,2.16A4.26,4.26,0,0,1,251,19.24a2.31,2.31,0,0,1,1,.64,2.84,2.84,0,0,1,.54,1,5.24,5.24,0,0,1,.23,1.14c0,.4.05.79.07,1.16,0,.55,0,1,.07,1.36a7,7,0,0,0,.12.88,1.73,1.73,0,0,0,.17.53.7.7,0,0,0,.24.29v.12l-1.5,0a2.56,2.56,0,0,1-.31-1c-.06-.43-.11-.87-.14-1.34s-.06-.92-.08-1.36a8.44,8.44,0,0,0-.11-1.08,2.21,2.21,0,0,0-.39-.93,1.73,1.73,0,0,0-.65-.53,2.89,2.89,0,0,0-.85-.24,7.77,7.77,0,0,0-1-.06Zm4.24-1.16a5.8,5.8,0,0,0,1.41-.16A3.34,3.34,0,0,0,250.9,18a2.53,2.53,0,0,0,.76-.89,2.87,2.87,0,0,0,.28-1.3,2.74,2.74,0,0,0-.29-1.32,2.28,2.28,0,0,0-.78-.82,3.34,3.34,0,0,0-1.12-.42,7,7,0,0,0-1.31-.12h-4.32v5.54Z"/><path d="M256,21.44A5.5,5.5,0,0,0,256.2,23a3.7,3.7,0,0,0,.65,1.3,3.05,3.05,0,0,0,1.09.88,3.63,3.63,0,0,0,3.54-.29,3,3,0,0,0,1.12-1.76h1.34a6.72,6.72,0,0,1-.58,1.37,4.17,4.17,0,0,1-.9,1.1,3.92,3.92,0,0,1-1.28.73,5.32,5.32,0,0,1-1.72.26,5,5,0,0,1-2.14-.42,4,4,0,0,1-1.48-1.15,4.72,4.72,0,0,1-.86-1.72,7.67,7.67,0,0,1-.28-2.13,6.8,6.8,0,0,1,.33-2.14,5.35,5.35,0,0,1,.94-1.75,4.31,4.31,0,0,1,1.49-1.18,4.42,4.42,0,0,1,2-.43,4.15,4.15,0,0,1,3.36,1.47,6.49,6.49,0,0,1,1.2,4.27Zm6.76-1a4.76,4.76,0,0,0-.21-1.43,3.4,3.4,0,0,0-.62-1.16,3,3,0,0,0-1-.78,3.4,3.4,0,0,0-1.42-.29,3.12,3.12,0,0,0-1.41.3,3.18,3.18,0,0,0-1,.8,3.84,3.84,0,0,0-.69,1.16,5,5,0,0,0-.34,1.4Z"/><path d="M266.36,23.1a3,3,0,0,0,1,1.89,3.38,3.38,0,0,0,2.09.55,3.52,3.52,0,0,0,1.14-.16,2.38,2.38,0,0,0,.79-.43,2,2,0,0,0,.47-.61,1.8,1.8,0,0,0,.16-.72,1.34,1.34,0,0,0-.49-1.13,3.7,3.7,0,0,0-1.23-.58c-.5-.14-1-.26-1.6-.36a7.65,7.65,0,0,1-1.6-.45,3.14,3.14,0,0,1-1.23-.86,2.3,2.3,0,0,1-.49-1.58,2.67,2.67,0,0,1,.95-2.13A4,4,0,0,1,269,15.7a4.59,4.59,0,0,1,2.73.75A3.45,3.45,0,0,1,273,19H271.8a2.26,2.26,0,0,0-.91-1.69,3.36,3.36,0,0,0-1.89-.49,2.67,2.67,0,0,0-1.74.49,1.59,1.59,0,0,0-.6,1.29,1.25,1.25,0,0,0,.49,1.07,3.72,3.72,0,0,0,1.23.6c.49.15,1,.29,1.6.41a8.09,8.09,0,0,1,1.6.51,3.61,3.61,0,0,1,1.23.89,2.31,2.31,0,0,1,.49,1.56,2.67,2.67,0,0,1-.32,1.31,2.85,2.85,0,0,1-.88.95,4.35,4.35,0,0,1-1.33.57,6.94,6.94,0,0,1-1.69.19,4.53,4.53,0,0,1-1.63-.27,3.45,3.45,0,0,1-1.21-.75,3.23,3.23,0,0,1-.78-1.12,3.77,3.77,0,0,1-.32-1.38Z"/><path d="M275.7,21.44a5.5,5.5,0,0,0,.22,1.59,3.7,3.7,0,0,0,.65,1.3,3.05,3.05,0,0,0,1.09.88,3.63,3.63,0,0,0,3.54-.29,3,3,0,0,0,1.12-1.76h1.34a6.72,6.72,0,0,1-.58,1.37,4.17,4.17,0,0,1-.9,1.1,3.92,3.92,0,0,1-1.28.73,5.32,5.32,0,0,1-1.72.26A5,5,0,0,1,277,26.2a4,4,0,0,1-1.48-1.15,4.72,4.72,0,0,1-.86-1.72,7.67,7.67,0,0,1-.28-2.13,6.8,6.8,0,0,1,.33-2.14,5.35,5.35,0,0,1,.94-1.75,4.31,4.31,0,0,1,1.49-1.18,4.42,4.42,0,0,1,2-.43,4.15,4.15,0,0,1,3.36,1.47,6.49,6.49,0,0,1,1.2,4.27Zm6.76-1a4.76,4.76,0,0,0-.21-1.43,3.4,3.4,0,0,0-.62-1.16,3,3,0,0,0-1-.78,3.4,3.4,0,0,0-1.42-.29,3.12,3.12,0,0,0-1.41.3,3.18,3.18,0,0,0-1,.8A3.84,3.84,0,0,0,276,19a5,5,0,0,0-.34,1.4Z"/><path d="M290.14,20.3l.81-.12a3.1,3.1,0,0,0,.77-.22.64.64,0,0,0,.37-.47,3.46,3.46,0,0,0,.07-.61,2.06,2.06,0,0,0-.59-1.51,2.78,2.78,0,0,0-2-.59,5.65,5.65,0,0,0-1.14.11,2.4,2.4,0,0,0-.91.38,2,2,0,0,0-.64.72,3,3,0,0,0-.33,1.13h-1.22a3.71,3.71,0,0,1,.42-1.57,3.18,3.18,0,0,1,.93-1.06,4,4,0,0,1,1.32-.6,6.6,6.6,0,0,1,3.06,0,3.29,3.29,0,0,1,1.2.54,2.62,2.62,0,0,1,.8,1,3.61,3.61,0,0,1,.29,1.52v5.64c0,.47.08.76.25.89s.5.1,1-.09v.94l-.41.12a2,2,0,0,1-.53.08,2.35,2.35,0,0,1-.54-.06,1,1,0,0,1-.48-.19,1.12,1.12,0,0,1-.29-.36,1.19,1.19,0,0,1-.15-.46,3,3,0,0,1,0-.53,5.07,5.07,0,0,1-3.86,1.72,4.71,4.71,0,0,1-1.31-.18,3.23,3.23,0,0,1-1.11-.56,2.64,2.64,0,0,1-.76-.93,2.84,2.84,0,0,1-.28-1.31c0-1.76,1.2-2.8,3.62-3.12Zm2,.6a6.19,6.19,0,0,1-1.54.42c-.52.07-1,.12-1.56.16a4.39,4.39,0,0,0-2.15.62,1.76,1.76,0,0,0-.77,1.58,1.67,1.67,0,0,0,.19.83,1.65,1.65,0,0,0,.5.58,2,2,0,0,0,.72.34,3.32,3.32,0,0,0,.83.11,5.49,5.49,0,0,0,1.4-.18,3.81,3.81,0,0,0,1.21-.55,3,3,0,0,0,.85-.94,2.75,2.75,0,0,0,.32-1.35Z"/><path d="M297.06,26.34h-1.2V16h1.2v1.94h0a3.44,3.44,0,0,1,1.29-1.73,3.87,3.87,0,0,1,2.09-.49V17a3.5,3.5,0,0,0-1.68.32,2.76,2.76,0,0,0-1.05.92,3.64,3.64,0,0,0-.54,1.37,8.88,8.88,0,0,0-.15,1.65Z"/><path d="M309.1,19.24a3.53,3.53,0,0,0-1.1-1.81,3,3,0,0,0-2-.65,3.13,3.13,0,0,0-1.58.38,3.17,3.17,0,0,0-1.08,1,4.44,4.44,0,0,0-.62,1.42,6.13,6.13,0,0,0-.2,1.59,6.55,6.55,0,0,0,.19,1.6,4.11,4.11,0,0,0,.61,1.4A3.05,3.05,0,0,0,306,25.54a3.08,3.08,0,0,0,2.15-.74,3.44,3.44,0,0,0,1-2h1.28a6.29,6.29,0,0,1-.51,1.57,4.44,4.44,0,0,1-.9,1.22,4,4,0,0,1-1.31.79,5.2,5.2,0,0,1-1.74.28,5,5,0,0,1-2.14-.42,4,4,0,0,1-1.48-1.15,4.69,4.69,0,0,1-.86-1.73,7.79,7.79,0,0,1-.28-2.14,6.78,6.78,0,0,1,.31-2.07,5.3,5.3,0,0,1,.91-1.75A4.3,4.3,0,0,1,304,16.15a4.45,4.45,0,0,1,2-.45,4.64,4.64,0,0,1,2.91.86,4,4,0,0,1,1.39,2.68Z"/><path d="M312.18,26.34V11.94h1.2v5.48a7.32,7.32,0,0,1,1.49-1.24,3.42,3.42,0,0,1,1.85-.48,4.74,4.74,0,0,1,1.78.33,3.08,3.08,0,0,1,1.38,1.15,2.66,2.66,0,0,1,.45,1.15,12,12,0,0,1,.07,1.23v6.78h-1.2V19.58a3.1,3.1,0,0,0-.62-2.1,2.63,2.63,0,0,0-2.06-.7,3,3,0,0,0-1,.17,2.88,2.88,0,0,0-.83.45A2.94,2.94,0,0,0,314,18a2.64,2.64,0,0,0-.4.76,3.49,3.49,0,0,0-.22,1c0,.31,0,.64,0,1v5.58Z"/><path d="M337.86,16.12a4.11,4.11,0,0,0-1.56-2.62,5.19,5.19,0,0,0-3-.78,4.5,4.5,0,0,0-2.24.52,4.44,4.44,0,0,0-1.55,1.4,6,6,0,0,0-.9,2,9.63,9.63,0,0,0-.29,2.43,10.93,10.93,0,0,0,.25,2.36,6.12,6.12,0,0,0,.83,2.07A4.24,4.24,0,0,0,331,25a4.92,4.92,0,0,0,2.46.56,4.56,4.56,0,0,0,1.68-.3,4.33,4.33,0,0,0,1.33-.83,4.78,4.78,0,0,0,1-1.25A6.61,6.61,0,0,0,338,21.6h1.42a9.41,9.41,0,0,1-.7,2,5.72,5.72,0,0,1-1.21,1.63,5.46,5.46,0,0,1-1.82,1.11,7.1,7.1,0,0,1-2.51.41,6,6,0,0,1-2.84-.61,5.43,5.43,0,0,1-1.93-1.65,6.81,6.81,0,0,1-1.09-2.41,11.84,11.84,0,0,1-.34-2.91,10.56,10.56,0,0,1,.51-3.5,6.2,6.2,0,0,1,1.41-2.35A5.21,5.21,0,0,1,331,12a8.38,8.38,0,0,1,2.66-.41,7.15,7.15,0,0,1,2.05.29,5,5,0,0,1,1.68.87,4.92,4.92,0,0,1,1.2,1.43,6.09,6.09,0,0,1,.65,2Z"/><path d="M345.32,26.62a5.7,5.7,0,0,1-1.87-.36,4.24,4.24,0,0,1-1.52-1,4.72,4.72,0,0,1-1-1.7,6.64,6.64,0,0,1-.38-2.38,7.31,7.31,0,0,1,.3-2.13,5,5,0,0,1,.9-1.73,4.35,4.35,0,0,1,1.5-1.17,4.77,4.77,0,0,1,2.1-.43,4.83,4.83,0,0,1,2.12.43,4.32,4.32,0,0,1,1.5,1.16,4.89,4.89,0,0,1,.89,1.73,7.79,7.79,0,0,1,.29,2.14,7.12,7.12,0,0,1-.34,2.24,5.07,5.07,0,0,1-1,1.72,4.3,4.3,0,0,1-1.52,1.11A4.88,4.88,0,0,1,345.32,26.62Zm3.52-5.46a7.24,7.24,0,0,0-.2-1.72,4.21,4.21,0,0,0-.62-1.39,3,3,0,0,0-1.08-.93,3.47,3.47,0,0,0-1.62-.34,3.22,3.22,0,0,0-1.61.37,3,3,0,0,0-1.09,1,4.24,4.24,0,0,0-.62,1.4,6.33,6.33,0,0,0-.2,1.63,6.22,6.22,0,0,0,.23,1.77,4,4,0,0,0,.67,1.39,2.92,2.92,0,0,0,1.1.9,3.47,3.47,0,0,0,1.52.32,3.27,3.27,0,0,0,1.61-.37,3.24,3.24,0,0,0,1.09-1,4.56,4.56,0,0,0,.62-1.4A6.66,6.66,0,0,0,348.84,21.16Z"/><path d="M352.66,26.34h-1.2V16h1.2v1.56h0A3.07,3.07,0,0,1,354,16.17a3.88,3.88,0,0,1,1.88-.47,4,4,0,0,1,1.22.16,3,3,0,0,1,.85.43,2.67,2.67,0,0,1,.58.63,4.73,4.73,0,0,1,.39.78,3.47,3.47,0,0,1,1.39-1.51,3.94,3.94,0,0,1,2-.49,3.54,3.54,0,0,1,1.69.35,2.53,2.53,0,0,1,1,.92,3.83,3.83,0,0,1,.45,1.31,10.77,10.77,0,0,1,.11,1.52v6.54h-1.2V19.18a2.94,2.94,0,0,0-.47-1.76,2.05,2.05,0,0,0-1.75-.64,3,3,0,0,0-1.27.29,2.83,2.83,0,0,0-1.07.89,2,2,0,0,0-.33.61,4.38,4.38,0,0,0-.21.73,5,5,0,0,0-.11.76c0,.25,0,.49,0,.7v5.58h-1.2V19.18a2.94,2.94,0,0,0-.47-1.76,2.05,2.05,0,0,0-1.75-.64,3,3,0,0,0-1.27.29,2.83,2.83,0,0,0-1.07.89,2,2,0,0,0-.33.61,4.38,4.38,0,0,0-.21.73,5,5,0,0,0-.11.76c0,.25,0,.49,0,.7Z"/><path d="M368.92,30.42h-1.2V16h1.2V17.8h0a3.41,3.41,0,0,1,.67-.9,3.6,3.6,0,0,1,.9-.66,4.62,4.62,0,0,1,1-.4,4,4,0,0,1,1-.14,5,5,0,0,1,2.14.42,4,4,0,0,1,1.45,1.15A4.8,4.8,0,0,1,377,19a8.65,8.65,0,0,1,.26,2.14,8,8,0,0,1-.28,2.08,5.19,5.19,0,0,1-.85,1.75,4.21,4.21,0,0,1-1.44,1.2,4.42,4.42,0,0,1-2.05.45,4.7,4.7,0,0,1-2.11-.49,3.66,3.66,0,0,1-1.59-1.45Zm0-9.22a5.71,5.71,0,0,0,.24,1.67,4.36,4.36,0,0,0,.69,1.38,3.32,3.32,0,0,0,1.1.94,3.07,3.07,0,0,0,1.47.35,3.33,3.33,0,0,0,1.61-.37,3.22,3.22,0,0,0,1.13-1,4.57,4.57,0,0,0,.64-1.49,7.22,7.22,0,0,0,.16-1.83,5.11,5.11,0,0,0-.27-1.73,3.72,3.72,0,0,0-.75-1.27,3.22,3.22,0,0,0-1.12-.79,3.6,3.6,0,0,0-1.4-.27,3.14,3.14,0,0,0-2.6,1.27,4,4,0,0,0-.67,1.4A6.12,6.12,0,0,0,368.92,21.2Z"/><path d="M386.12,16h1.2V26.34h-1.2V24.9c-.16.19-.34.38-.54.58a4.27,4.27,0,0,1-.69.55,3.82,3.82,0,0,1-.91.42,4,4,0,0,1-1.2.17,4.58,4.58,0,0,1-1.74-.29,2.72,2.72,0,0,1-1.13-.81,3.1,3.1,0,0,1-.62-1.21,5.53,5.53,0,0,1-.19-1.51V16h1.2v6.8a3,3,0,0,0,.62,2,2.58,2.58,0,0,0,2,.71,3.05,3.05,0,0,0,1.33-.29,2.77,2.77,0,0,0,1-.81,4.12,4.12,0,0,0,.62-1.24,5.64,5.64,0,0,0,.22-1.58Z"/><path d="M393.16,26.38a4.26,4.26,0,0,0-.58.14,3.3,3.3,0,0,1-.8.1,1.9,1.9,0,0,1-1.37-.45,2.17,2.17,0,0,1-.47-1.61V17h-1.46V16h1.46V13.1h1.2V16h1.94v1h-1.94v7.1c0,.25,0,.47,0,.66a1,1,0,0,0,.12.46.54.54,0,0,0,.31.26,1.78,1.78,0,0,0,.59.08,2.77,2.77,0,0,0,.49,0l.49-.1Z"/><path d="M394.5,13.72V11.94h1.32v1.78Zm.06,12.62V16h1.2V26.34Z"/><path d="M399.31,26.34h-1.2V16h1.2v1.44a7.9,7.9,0,0,1,1.49-1.24,3.48,3.48,0,0,1,1.86-.48,4.74,4.74,0,0,1,1.78.33,3,3,0,0,1,1.37,1.15,2.56,2.56,0,0,1,.46,1.15,12.07,12.07,0,0,1,.06,1.23v6.78h-1.19V19.58a3.1,3.1,0,0,0-.62-2.1,2.63,2.63,0,0,0-2.06-.7,3,3,0,0,0-1,.17,3.08,3.08,0,0,0-.84.45A3.13,3.13,0,0,0,400,18a3,3,0,0,0-.41.76,4.41,4.41,0,0,0-.22,1c0,.31,0,.64,0,1Z"/><path d="M416.53,16h1.2v9.36a8.67,8.67,0,0,1-.21,2,4,4,0,0,1-.75,1.67,3.69,3.69,0,0,1-1.48,1.15,5.75,5.75,0,0,1-2.41.43,5.91,5.91,0,0,1-2-.29,4.52,4.52,0,0,1-1.35-.73,3.41,3.41,0,0,1-.79-1,2.61,2.61,0,0,1-.29-1h1.28a2.4,2.4,0,0,0,.45.95,2.21,2.21,0,0,0,.71.58,3.17,3.17,0,0,0,.9.29,7.1,7.1,0,0,0,1.05.08,3.92,3.92,0,0,0,1.95-.42A2.92,2.92,0,0,0,416,28a4.49,4.49,0,0,0,.49-1.54,11.35,11.35,0,0,0,.08-1.76A3.69,3.69,0,0,1,415,26.13a4.77,4.77,0,0,1-2.12.49,4.42,4.42,0,0,1-2.05-.45,4.31,4.31,0,0,1-1.44-1.2,5.38,5.38,0,0,1-.85-1.75,8,8,0,0,1-.27-2.08,8.66,8.66,0,0,1,.25-2.14,5,5,0,0,1,.83-1.73,4.09,4.09,0,0,1,1.45-1.15,5,5,0,0,1,2.15-.42,4.1,4.1,0,0,1,1,.14,5.05,5.05,0,0,1,1,.4,3.74,3.74,0,0,1,.89.66,3.41,3.41,0,0,1,.67.9h0Zm0,5.22a6.12,6.12,0,0,0-.23-1.75,4.22,4.22,0,0,0-.66-1.4,3.33,3.33,0,0,0-1.11-.93,3.19,3.19,0,0,0-1.5-.34,3.52,3.52,0,0,0-1.39.27,3.17,3.17,0,0,0-1.13.79,4.07,4.07,0,0,0-.75,1.27,5.11,5.11,0,0,0-.27,1.73,6.78,6.78,0,0,0,.17,1.83,4.35,4.35,0,0,0,.63,1.49,3.22,3.22,0,0,0,1.13,1,3.27,3.27,0,0,0,1.61.37,3.07,3.07,0,0,0,1.47-.35,3.32,3.32,0,0,0,1.1-.94,4,4,0,0,0,.69-1.38A5.4,5.4,0,0,0,416.53,21.2Z"/></svg>